<?xml version="1.0" encoding="UTF-8" standalone="no"?>
<!-- Created with Inkscape (http://www.inkscape.org/) -->

<svg
   xmlns:dc="http://purl.org/dc/elements/1.1/"
   xmlns:cc="http://creativecommons.org/ns#"
   xmlns:rdf="http://www.w3.org/1999/02/22-rdf-syntax-ns#"
   xmlns:svg="http://www.w3.org/2000/svg"
   xmlns="http://www.w3.org/2000/svg"
   xmlns:sodipodi="http://sodipodi.sourceforge.net/DTD/sodipodi-0.dtd"
   xmlns:inkscape="http://www.inkscape.org/namespaces/inkscape"
   width="64"
   height="64"
   viewBox="0 0 63.999999 63.999999"
   id="svg3381"
   version="1.1"
   inkscape:version="0.91 r13725"
   sodipodi:docname="milight.svg">
  <defs
     id="defs3383" />
  <sodipodi:namedview
     id="base"
     pagecolor="#ffffff"
     bordercolor="#666666"
     borderopacity="1.0"
     inkscape:pageopacity="0.0"
     inkscape:pageshadow="2"
     inkscape:zoom="7.9195959"
     inkscape:cx="52.311548"
     inkscape:cy="24.816081"
     inkscape:document-units="px"
     inkscape:current-layer="layer1"
     showgrid="false"
     units="px"
     inkscape:showpageshadow="true"
     inkscape:window-width="1680"
     inkscape:window-height="971"
     inkscape:window-x="-8"
     inkscape:window-y="-8"
     inkscape:window-maximized="1" />
  <metadata
     id="metadata3386">
    <rdf:RDF>
      <cc:Work
         rdf:about="">
        <dc:format>image/svg+xml</dc:format>
        <dc:type
           rdf:resource="http://purl.org/dc/dcmitype/StillImage" />
        <dc:title></dc:title>
      </cc:Work>
    </rdf:RDF>
  </metadata>
  <g
     inkscape:label="Ebene 1"
     inkscape:groupmode="layer"
     id="layer1"
     transform="translate(0,-988.3622)">
    <g
       id="g3356"
       transform="matrix(0.08902716,0,0,0.08902716,-4.4884184e-4,988.34998)">
      <rect
         y="0"
         x="0"
         height="719.64575"
         width="719.62988"
         id="rect3440"
         style="fill:#e6e6e6;fill-opacity:1" />
      <path
         inkscape:connector-curvature="0"
         style="fill:#ffffff;fill-opacity:1;stroke:none"
         id="path2872"
         transform="matrix(1.2851726,0,0,1.2851726,-95.213202,-163.08132)"
         d="m 354.20395,196.924 105.04426,28.14652 76.89773,76.89773 28.14653,105.04426 L 536.14594,512.05677 459.24821,588.9545 354.20395,617.10103 249.15969,588.9545 172.26196,512.05677 144.11543,407.01251 172.26196,301.96825 249.15969,225.07052 354.20395,196.924 Z" />
      <g
         id="g3420">
        <path
           inkscape:connector-curvature="0"
           d="m 394.13237,311.05545 a 83.07692,83.07692 0 1 1 -166.15384,0 83.07692,83.07692 0 1 1 166.15384,0 z"
           transform="matrix(0.72222225,0,0,0.72222225,135.34883,-134.65117)"
           id="path2839"
           style="fill:#ff0000;stroke:none" />
        <path
           inkscape:connector-curvature="0"
           d="m 394.13237,311.05545 a 83.07692,83.07692 0 1 1 -166.15384,0 83.07692,83.07692 0 1 1 166.15384,0 z"
           transform="matrix(0.72222225,0,0,0.72222225,270.34883,-98.478027)"
           id="path2896"
           style="fill:#ff8000;stroke:none" />
        <path
           inkscape:connector-curvature="0"
           d="m 394.13237,311.05545 a 83.07692,83.07692 0 1 1 -166.15384,0 83.07692,83.07692 0 1 1 166.15384,0 z"
           transform="matrix(0.72222225,0,0,0.72222225,369.17569,0.34883183)"
           id="path2898"
           style="fill:#ffff00;stroke:none" />
        <path
           inkscape:connector-curvature="0"
           d="m 394.13237,311.05545 a 83.07692,83.07692 0 1 1 -166.15384,0 83.07692,83.07692 0 1 1 166.15384,0 z"
           transform="matrix(0.72222225,0,0,0.72222225,405.34883,135.34883)"
           id="path2900"
           style="fill:#80ff00;stroke:none" />
        <path
           inkscape:connector-curvature="0"
           d="m 394.13237,311.05545 a 83.07692,83.07692 0 1 1 -166.15384,0 83.07692,83.07692 0 1 1 166.15384,0 z"
           transform="matrix(0.72222225,0,0,0.72222225,369.17569,270.34883)"
           id="path2902"
           style="fill:#00ff00;stroke:none" />
        <path
           inkscape:connector-curvature="0"
           d="m 394.13237,311.05545 a 83.07692,83.07692 0 1 1 -166.15384,0 83.07692,83.07692 0 1 1 166.15384,0 z"
           transform="matrix(0.72222225,0,0,0.72222225,270.34883,369.17569)"
           id="path2904"
           style="fill:#00ff80;stroke:none" />
        <path
           inkscape:connector-curvature="0"
           d="m 394.13237,311.05545 a 83.07692,83.07692 0 1 1 -166.15384,0 83.07692,83.07692 0 1 1 166.15384,0 z"
           transform="matrix(0.72222225,0,0,0.72222225,135.34883,405.34883)"
           id="path2906"
           style="fill:#00ffff;stroke:none" />
        <path
           inkscape:connector-curvature="0"
           d="m 394.13237,311.05545 a 83.07692,83.07692 0 1 1 -166.15384,0 83.07692,83.07692 0 1 1 166.15384,0 z"
           transform="matrix(0.72222225,0,0,0.72222225,0.34883183,369.17569)"
           id="path2908"
           style="fill:#0080ff;stroke:none" />
        <path
           inkscape:connector-curvature="0"
           d="m 394.13237,311.05545 a 83.07692,83.07692 0 1 1 -166.15384,0 83.07692,83.07692 0 1 1 166.15384,0 z"
           transform="matrix(0.72222225,0,0,0.72222225,-98.478027,270.34883)"
           id="path2910"
           style="fill:#0000ff;stroke:none" />
        <path
           inkscape:connector-curvature="0"
           d="m 394.13237,311.05545 a 83.07692,83.07692 0 1 1 -166.15384,0 83.07692,83.07692 0 1 1 166.15384,0 z"
           transform="matrix(0.72222225,0,0,0.72222225,-134.65117,135.34883)"
           id="path2912"
           style="fill:#8000ff;stroke:none" />
        <path
           inkscape:connector-curvature="0"
           d="m 394.13237,311.05545 a 83.07692,83.07692 0 1 1 -166.15384,0 83.07692,83.07692 0 1 1 166.15384,0 z"
           transform="matrix(0.72222225,0,0,0.72222225,-98.478027,0.34883183)"
           id="path2914"
           style="fill:#ff00ff;stroke:none" />
        <path
           inkscape:connector-curvature="0"
           d="m 394.13237,311.05545 a 83.07692,83.07692 0 1 1 -166.15384,0 83.07692,83.07692 0 1 1 166.15384,0 z"
           transform="matrix(0.72222225,0,0,0.72222225,0.34883183,-98.478027)"
           id="path2916"
           style="fill:#ff0080;stroke:none" />
      </g>
      <g
         id="g3"
         transform="matrix(1.6368877,0,0,1.6368877,38.095278,21.097991)">
        <path
           id="path5"
           d="m 195.7,309.9 c 18.6,0 33.6,-15 33.6,-33.6 l -67.2,0 c 0,18.6 15.1,33.6 33.6,33.6 z"
           inkscape:connector-curvature="0" />
        <rect
           id="rect7"
           height="17"
           width="17"
           y="150.89999"
           x="203.39999" />
        <rect
           id="rect9"
           height="17"
           width="17"
           y="150.89999"
           x="165.89999" />
        <rect
           id="rect11"
           height="17"
           width="17"
           y="185.60001"
           x="203.39999" />
        <rect
           id="rect13"
           height="17"
           width="17"
           y="185.60001"
           x="165.89999" />
        <path
           id="path15"
           d="m 193.5,113.5 c -57.6,0 -72.9,58.8 -57.6,86.4 16,28.8 25.6,28.8 25.6,48 0,9.6 0,14.3 0,14.3 l 67.2,0 c 0,0 0,-4.7 0,-14.3 0,-19.2 9.6,-19.2 22.4,-48 13.5,-30.1 0.1,-86.4 -57.6,-86.4 z m 44.7,80.6 c -4.9,10.9 -9.1,17 -12.8,22.4 -5.6,8.2 -10.9,15.9 -10.9,31.4 l 0,0.1 -38.9,0 0,-0.1 c 0,-16.5 -5.9,-24.2 -12.8,-33.1 -3.9,-5.1 -8.8,-11.4 -14.5,-21.8 -5.1,-9.1 -5.9,-27.6 3.3,-43.2 6,-10.1 18.1,-22.2 41.9,-22.2 18.2,0 31.8,6.6 40.2,19.5 9.9,15.3 9.8,35.2 4.5,47 z"
           inkscape:connector-curvature="0" />
      </g>
      <path
         inkscape:connector-curvature="0"
         id="path3434"
         d="m 324.93122,409.36156 c -2.61936,-11.70453 -8.95663,-23.81482 -21.68733,-41.44368 -22.92194,-31.74122 -28.87912,-46.93658 -26.44809,-67.46282 2.45856,-20.75871 16.37774,-44.84441 32.07259,-55.4983 17.19244,-11.67048 42.6299,-16.15561 65.09496,-11.47755 35.40448,7.37254 54.82728,31.9407 56.85023,71.91062 0.98194,19.40137 0.13869,23.17089 -9.21336,41.18644 -5.66183,10.90678 -14.85964,26.96628 -20.43958,35.68777 -6.15774,9.6246 -10.76063,21.3161 -11.71078,29.74576 l -1.56543,13.88851 -29.62623,0 -29.62622,0 -3.70076,-16.53675 z m 14.33763,-71.17512 -0.92987,-14.49152 -14.49152,-0.92988 -14.49153,-0.92987 0,15.4214 0,15.4214 15.4214,0 15.42139,0 -0.92987,-14.49153 z m 61.01695,0 -0.92987,-14.49152 -14.49152,-0.92988 -14.49153,-0.92987 0,15.4214 0,15.4214 15.4214,0 15.42139,0 -0.92987,-14.49153 z m -60.42139,-55.67797 0,-15.25423 -15.25424,0 -15.25424,0 0,15.25423 0,15.25424 15.25424,0 15.25424,0 0,-15.25424 z m 61.01695,0 0,-15.25423 -15.25424,0 -15.25424,0 0,15.25423 0,15.25424 15.25424,0 15.25424,0 0,-15.25424 z"
         style="fill:#e6e6e6;fill-opacity:1" />
    </g>
  </g>
</svg>
